<svg width="100" height="100" viewBox="0 0 100 100" fill="none" xmlns="http://www.w3.org/2000/svg">
<rect width="100" height="100" rx="5" fill="#FDF773"/>
<path d="M50 39.875C51.5625 39.875 52.8908 39.3283 53.985 38.235C55.0783 37.1408 55.625 35.8125 55.625 34.25C55.625 32.6875 55.0783 31.3592 53.985 30.265C52.8908 29.1717 51.5625 28.625 50 28.625C48.4375 28.625 47.1092 29.1717 46.015 30.265C44.9217 31.3592 44.375 32.6875 44.375 34.25C44.375 35.8125 44.9217 37.1408 46.015 38.235C47.1092 39.3283 48.4375 39.875 50 39.875ZM40 44.25C39.3125 44.25 38.7242 44.0054 38.235 43.5163C37.745 43.0263 37.5 42.4375 37.5 41.75V26.75C37.5 26.0625 37.745 25.4742 38.235 24.985C38.7242 24.495 39.3125 24.25 40 24.25H43.9375L45.5 22.5625C45.7292 22.2917 46.005 22.0883 46.3275 21.9525C46.6508 21.8175 46.9896 21.75 47.3438 21.75H52.6562C53.0104 21.75 53.3492 21.8175 53.6725 21.9525C53.995 22.0883 54.2708 22.2917 54.5 22.5625L56.0625 24.25H60C60.6875 24.25 61.2763 24.495 61.7663 24.985C62.2554 25.4742 62.5 26.0625 62.5 26.75V41.75C62.5 42.4375 62.2554 43.0263 61.7663 43.5163C61.2763 44.0054 60.6875 44.25 60 44.25H40Z" fill="#999999"/>
<path d="M26.9863 56.832H25.3903V58.44C25.3903 60.492 24.5503 62.604 22.6903 63.48L23.6383 64.764C24.8863 64.152 25.7143 62.988 26.1943 61.584C26.6503 62.904 27.4303 63.972 28.5823 64.56L29.5423 63.312C27.7663 62.436 26.9863 60.432 26.9863 58.44V56.832ZM33.1783 60.228H31.5703V55.98H29.9863V67.032H31.5703V61.548H33.1783V60.228ZM43.1374 55.98H41.5414V63.972H43.1374V55.98ZM40.8454 61.392C39.0574 60.804 38.2534 59.448 38.2534 58.152V58.02H40.4374V56.772H34.4254V58.02H36.6454V58.152C36.6454 59.532 35.8414 60.984 34.0054 61.56L34.8094 62.796C36.0934 62.376 36.9814 61.524 37.4734 60.444C37.9774 61.428 38.8174 62.22 40.0414 62.604L40.8454 61.392ZM37.3654 65.58V63.252H35.7814V66.84H43.4134V65.58H37.3654ZM47.7205 65.136H53.7685V62.292H46.1365V63.468H52.2085V64.044H46.1485V66.948H54.0565V65.76H47.7205V65.136ZM47.6365 57.96C47.6365 57.468 48.3925 57.24 49.9885 57.24C51.5965 57.24 52.3525 57.468 52.3525 57.96C52.3525 58.476 51.5965 58.692 49.9885 58.692C48.3925 58.692 47.6365 58.476 47.6365 57.96ZM50.7565 60.468V59.82C52.8205 59.688 53.9965 59.052 53.9965 57.96C53.9965 56.748 52.5205 56.076 49.9885 56.076C47.4685 56.076 45.9925 56.748 45.9925 57.96C45.9925 59.04 47.1565 59.676 49.1725 59.82V60.468H44.9965V61.704H54.9805V60.468H50.7565ZM58.2435 61.188H61.8315V56.916H56.6115V58.176H60.2115V59.94H56.6235V64.488H57.6195C59.6235 64.488 61.2435 64.416 63.0435 64.104L62.8755 62.82C61.3155 63.084 59.9235 63.168 58.2435 63.18V61.188ZM63.6435 55.968V67.056H65.2275V55.968H63.6435ZM67.6866 57.12V58.38H71.3706C71.1426 60.828 69.9186 62.556 67.0986 63.912L67.9266 65.16C71.8506 63.264 72.9906 60.504 72.9906 57.12H67.6866ZM74.6826 55.968V67.02H76.2786V55.968H74.6826Z" fill="#999999"/>
</svg>
