<svg width="312" height="40" viewBox="0 0 312 40" fill="none" xmlns="http://www.w3.org/2000/svg">
<rect width="312" height="40" rx="5" fill="#FDF773"/>
<path d="M123.976 15.808V17.428C123.976 19.492 123.124 21.628 121.252 22.504L122.212 23.788C124.312 22.756 125.272 20.176 125.272 17.428V15.808H123.976ZM124.3 15.808V17.428C124.3 20.092 125.176 22.564 127.18 23.584L128.14 22.312C126.364 21.448 125.572 19.42 125.572 17.428V15.808H124.3ZM128.584 14.956V26.068H130.192V14.956H128.584ZM129.832 19.228V20.56H131.8V19.228H129.832ZM135.219 16.192V17.128C135.219 18.532 134.415 19.972 132.567 20.572L133.383 21.82C135.519 21.124 136.539 19.228 136.539 17.128V16.192H135.219ZM135.543 16.192V17.128C135.543 19.144 136.551 20.956 138.639 21.616L139.455 20.38C137.643 19.804 136.851 18.448 136.851 17.128V16.192H135.543ZM132.987 15.748V17.008H139.035V15.748H132.987ZM140.151 14.968V22.984H141.759V14.968H140.151ZM134.355 24.604V25.876H142.035V24.604H134.355ZM134.355 22.264V25.24H135.951V22.264H134.355ZM146.687 20.032V21.328H156.743V20.032H146.687ZM147.899 18.004V19.264H155.603V18.004H147.899ZM147.899 15.256V18.628H149.483V16.528H155.543V15.256H147.899ZM151.679 21.988C149.279 21.988 147.815 22.72 147.815 24.028C147.815 25.336 149.279 26.068 151.679 26.068C154.079 26.068 155.531 25.336 155.531 24.028C155.531 22.72 154.079 21.988 151.679 21.988ZM151.679 23.188C153.167 23.188 153.923 23.464 153.923 24.028C153.923 24.604 153.167 24.856 151.679 24.856C150.191 24.856 149.435 24.604 149.435 24.028C149.435 23.464 150.191 23.188 151.679 23.188ZM157.714 20.908V22.18H167.782V20.908H157.714ZM158.95 15.172V16.384H164.986V17.056H158.962V19.384H160.546V18.184H166.558V15.172H158.95ZM158.962 18.904V20.116H166.774V18.904H158.962ZM161.95 19.492V21.604H163.546V19.492H161.95ZM158.83 22.804V24.064H165.034V26.032H166.63V22.804H158.83ZM175.881 14.956V26.068H177.465V14.956H175.881ZM177.105 19.288V20.62H179.073V19.288H177.105ZM168.705 16.6V17.872H175.173V16.6H168.705ZM171.957 18.496C170.337 18.496 169.137 19.6 169.137 21.148C169.137 22.696 170.337 23.8 171.957 23.8C173.577 23.8 174.777 22.696 174.777 21.148C174.777 19.6 173.577 18.496 171.957 18.496ZM171.957 19.792C172.713 19.792 173.253 20.296 173.253 21.148C173.253 22 172.713 22.504 171.957 22.504C171.201 22.504 170.661 22 170.661 21.148C170.661 20.296 171.201 19.792 171.957 19.792ZM171.153 15.136V17.08H172.749V15.136H171.153ZM187.449 14.956V26.068H189.057V14.956H187.449ZM184.173 16.108V16.396C184.173 19.372 183.021 21.388 179.829 22.924L180.657 24.196C184.605 22.288 185.757 19.504 185.757 16.108H184.173ZM180.417 16.108V17.368H184.929V16.108H180.417Z" fill="#333333"/>
</svg>
