<svg width="15" height="24" viewBox="0 0 15 24" fill="none" xmlns="http://www.w3.org/2000/svg">
<path d="M11.4062 23.375L0.875 12.875C0.75 12.75 0.661667 12.6146 0.61 12.4688C0.5575 12.3229 0.53125 12.1667 0.53125 12C0.53125 11.8333 0.5575 11.6771 0.61 11.5312C0.661667 11.3854 0.75 11.25 0.875 11.125L11.4062 0.59375C11.6979 0.302083 12.0625 0.15625 12.5 0.15625C12.9375 0.15625 13.3125 0.3125 13.625 0.625C13.9375 0.9375 14.0937 1.30208 14.0937 1.71875C14.0937 2.13542 13.9375 2.5 13.625 2.8125L4.4375 12L13.625 21.1875C13.9167 21.4792 14.0625 21.8383 14.0625 22.265C14.0625 22.6925 13.9062 23.0625 13.5938 23.375C13.2812 23.6875 12.9167 23.8438 12.5 23.8438C12.0833 23.8438 11.7188 23.6875 11.4062 23.375Z" fill="black"/>
</svg>
