<svg width="16" height="16" viewBox="0 0 16 16" fill="none" xmlns="http://www.w3.org/2000/svg">
<path d="M4.7666 14.0666C4.59993 13.9 4.5166 13.7026 4.5166 13.4746C4.5166 13.2471 4.59993 13.05 4.7666 12.8833L9.64994 7.99996L4.74993 3.09996C4.59438 2.9444 4.5166 2.74996 4.5166 2.51663C4.5166 2.28329 4.59993 2.08329 4.7666 1.91663C4.93327 1.74996 5.1306 1.66663 5.3586 1.66663C5.58616 1.66663 5.78327 1.74996 5.94993 1.91663L11.5499 7.53329C11.6166 7.59996 11.6639 7.67218 11.6919 7.74996C11.7195 7.82774 11.7333 7.91107 11.7333 7.99996C11.7333 8.08885 11.7195 8.17218 11.6919 8.24996C11.6639 8.32774 11.6166 8.39996 11.5499 8.46663L5.93327 14.0833C5.77771 14.2388 5.58616 14.3166 5.3586 14.3166C5.1306 14.3166 4.93327 14.2333 4.7666 14.0666Z" fill="#555555"/>
</svg>
