<svg width="34" height="34" viewBox="0 0 34 34" fill="none" xmlns="http://www.w3.org/2000/svg">
<circle opacity="0.5" cx="17" cy="17" r="17" fill="#333333"/>
<path d="M25.825 24.0146C25.5854 24.2542 25.3018 24.374 24.974 24.374C24.6469 24.374 24.3635 24.2542 24.124 24.0146L17.1042 16.9948L10.0604 24.0385C9.83681 24.2622 9.55729 24.374 9.22188 24.374C8.88646 24.374 8.59896 24.2542 8.35938 24.0146C8.11979 23.775 8 23.4913 8 23.1636C8 22.8365 8.11979 22.5531 8.35937 22.3135L16.4333 14.2635C16.5292 14.1677 16.633 14.0997 16.7448 14.0594C16.8566 14.0198 16.9764 14 17.1042 14C17.2319 14 17.3517 14.0198 17.4635 14.0594C17.5753 14.0997 17.6792 14.1677 17.775 14.2635L25.849 22.3375C26.0726 22.5611 26.1844 22.8365 26.1844 23.1636C26.1844 23.4913 26.0646 23.775 25.825 24.0146Z" fill="white"/>
<path fill-rule="evenodd" clip-rule="evenodd" d="M8 12C8 11.4477 8.44772 11 9 11L25 11C25.5523 11 26 11.4477 26 12C26 12.5523 25.5523 13 25 13L9 13C8.44772 13 8 12.5523 8 12Z" fill="white"/>
</svg>
